<mxfile host="app.diagrams.net" modified="2023-10-15T02:00:31.769Z" agent="Mozilla/5.0 (Windows NT 10.0; Win64; x64) AppleWebKit/537.36 (KHTML, like Gecko) Chrome/118.0.0.0 Safari/537.36" etag="xIFLUp7UQ0WxSHYhlFmg" version="22.0.4" type="github">
  <diagram name="페이지-1" id="hJLF3SKrka-rzexhhtCJ">
    <mxGraphModel dx="2333" dy="1204" grid="1" gridSize="10" guides="1" tooltips="1" connect="1" arrows="1" fold="1" page="1" pageScale="1" pageWidth="827" pageHeight="1169" math="0" shadow="0">
      <root>
        <mxCell id="0" />
        <mxCell id="1" parent="0" />
        <mxCell id="-YLdFHBnDgQqYC_xWiKt-1" value="이용자" style="shape=umlActor;verticalLabelPosition=bottom;verticalAlign=top;html=1;" vertex="1" parent="1">
          <mxGeometry x="39" y="210" width="30" height="60" as="geometry" />
        </mxCell>
        <mxCell id="-YLdFHBnDgQqYC_xWiKt-6" value="게시판 서비스" style="shape=umlFrame;whiteSpace=wrap;html=1;pointerEvents=0;width=100;height=30;" vertex="1" parent="1">
          <mxGeometry x="139" y="40" width="571" height="560" as="geometry" />
        </mxCell>
        <mxCell id="-YLdFHBnDgQqYC_xWiKt-20" style="rounded=0;orthogonalLoop=1;jettySize=auto;html=1;exitX=0;exitY=0.5;exitDx=0;exitDy=0;entryX=1;entryY=0.3333333333333333;entryDx=0;entryDy=0;entryPerimeter=0;endArrow=none;endFill=0;" edge="1" parent="1" source="-YLdFHBnDgQqYC_xWiKt-7" target="-YLdFHBnDgQqYC_xWiKt-1">
          <mxGeometry relative="1" as="geometry">
            <mxPoint x="79" y="220" as="targetPoint" />
          </mxGeometry>
        </mxCell>
        <mxCell id="-YLdFHBnDgQqYC_xWiKt-7" value="회원 가입" style="rounded=1;whiteSpace=wrap;html=1;arcSize=40;fontColor=#000000;fillColor=#ffffc0;strokeColor=#ff0000;" vertex="1" parent="1">
          <mxGeometry x="169" y="210" width="120" height="40" as="geometry" />
        </mxCell>
        <mxCell id="-YLdFHBnDgQqYC_xWiKt-22" style="rounded=0;orthogonalLoop=1;jettySize=auto;html=1;endArrow=none;endFill=0;entryX=1;entryY=0.3333333333333333;entryDx=0;entryDy=0;entryPerimeter=0;exitX=0;exitY=0.5;exitDx=0;exitDy=0;" edge="1" parent="1" source="-YLdFHBnDgQqYC_xWiKt-11" target="-YLdFHBnDgQqYC_xWiKt-1">
          <mxGeometry relative="1" as="geometry">
            <mxPoint x="78.99999999999989" y="230" as="targetPoint" />
          </mxGeometry>
        </mxCell>
        <mxCell id="-YLdFHBnDgQqYC_xWiKt-27" style="edgeStyle=none;shape=connector;rounded=0;orthogonalLoop=1;jettySize=auto;html=1;entryX=0.5;entryY=1;entryDx=0;entryDy=0;labelBackgroundColor=default;strokeColor=default;align=center;verticalAlign=middle;fontFamily=Helvetica;fontSize=11;fontColor=default;endArrow=classic;endFill=1;exitX=1;exitY=0.5;exitDx=0;exitDy=0;dashed=1;" edge="1" parent="1" source="-YLdFHBnDgQqYC_xWiKt-11" target="-YLdFHBnDgQqYC_xWiKt-13">
          <mxGeometry relative="1" as="geometry" />
        </mxCell>
        <mxCell id="-YLdFHBnDgQqYC_xWiKt-36" style="edgeStyle=none;shape=connector;rounded=0;orthogonalLoop=1;jettySize=auto;html=1;entryX=0;entryY=0.5;entryDx=0;entryDy=0;labelBackgroundColor=default;strokeColor=default;align=center;verticalAlign=middle;fontFamily=Helvetica;fontSize=11;fontColor=default;endArrow=none;endFill=0;" edge="1" parent="1" target="-YLdFHBnDgQqYC_xWiKt-33">
          <mxGeometry relative="1" as="geometry">
            <mxPoint x="290" y="310" as="sourcePoint" />
          </mxGeometry>
        </mxCell>
        <mxCell id="-YLdFHBnDgQqYC_xWiKt-11" value="게시판 보기" style="rounded=1;whiteSpace=wrap;html=1;arcSize=40;fontColor=#000000;fillColor=#ffffc0;strokeColor=#ff0000;" vertex="1" parent="1">
          <mxGeometry x="169" y="290" width="120" height="40" as="geometry" />
        </mxCell>
        <mxCell id="-YLdFHBnDgQqYC_xWiKt-23" style="rounded=0;orthogonalLoop=1;jettySize=auto;html=1;endArrow=none;endFill=0;exitX=0;exitY=0.5;exitDx=0;exitDy=0;" edge="1" parent="1" source="-YLdFHBnDgQqYC_xWiKt-12">
          <mxGeometry relative="1" as="geometry">
            <mxPoint x="69" y="230" as="targetPoint" />
          </mxGeometry>
        </mxCell>
        <mxCell id="-YLdFHBnDgQqYC_xWiKt-28" style="edgeStyle=none;shape=connector;rounded=0;orthogonalLoop=1;jettySize=auto;html=1;entryX=0.5;entryY=1;entryDx=0;entryDy=0;labelBackgroundColor=default;strokeColor=default;align=center;verticalAlign=middle;fontFamily=Helvetica;fontSize=11;fontColor=default;endArrow=classic;endFill=1;exitX=1;exitY=0.5;exitDx=0;exitDy=0;dashed=1;" edge="1" parent="1" source="-YLdFHBnDgQqYC_xWiKt-12" target="-YLdFHBnDgQqYC_xWiKt-13">
          <mxGeometry relative="1" as="geometry" />
        </mxCell>
        <mxCell id="-YLdFHBnDgQqYC_xWiKt-38" style="edgeStyle=none;shape=connector;rounded=0;orthogonalLoop=1;jettySize=auto;html=1;entryX=0;entryY=0.5;entryDx=0;entryDy=0;labelBackgroundColor=default;strokeColor=default;align=center;verticalAlign=middle;fontFamily=Helvetica;fontSize=11;fontColor=default;endArrow=none;endFill=0;" edge="1" parent="1" source="-YLdFHBnDgQqYC_xWiKt-12" target="-YLdFHBnDgQqYC_xWiKt-33">
          <mxGeometry relative="1" as="geometry">
            <Array as="points">
              <mxPoint x="530" y="380" />
            </Array>
          </mxGeometry>
        </mxCell>
        <mxCell id="-YLdFHBnDgQqYC_xWiKt-12" value="게시글 보기" style="rounded=1;whiteSpace=wrap;html=1;arcSize=40;fontColor=#000000;fillColor=#ffffc0;strokeColor=#ff0000;" vertex="1" parent="1">
          <mxGeometry x="169" y="430" width="120" height="40" as="geometry" />
        </mxCell>
        <mxCell id="-YLdFHBnDgQqYC_xWiKt-21" style="rounded=0;orthogonalLoop=1;jettySize=auto;html=1;endArrow=none;endFill=0;entryX=1;entryY=0.3333333333333333;entryDx=0;entryDy=0;entryPerimeter=0;" edge="1" parent="1" source="-YLdFHBnDgQqYC_xWiKt-13" target="-YLdFHBnDgQqYC_xWiKt-1">
          <mxGeometry relative="1" as="geometry">
            <mxPoint x="79" y="220" as="targetPoint" />
          </mxGeometry>
        </mxCell>
        <mxCell id="-YLdFHBnDgQqYC_xWiKt-24" style="edgeStyle=none;shape=connector;rounded=0;orthogonalLoop=1;jettySize=auto;html=1;entryX=0;entryY=0.5;entryDx=0;entryDy=0;labelBackgroundColor=default;strokeColor=default;align=center;verticalAlign=middle;fontFamily=Helvetica;fontSize=11;fontColor=default;endArrow=classic;endFill=1;dashed=1;" edge="1" parent="1" source="-YLdFHBnDgQqYC_xWiKt-13" target="-YLdFHBnDgQqYC_xWiKt-14">
          <mxGeometry relative="1" as="geometry" />
        </mxCell>
        <mxCell id="-YLdFHBnDgQqYC_xWiKt-26" value="&amp;lt;&amp;lt;include&amp;gt;&amp;gt;" style="edgeLabel;html=1;align=center;verticalAlign=middle;resizable=0;points=[];fontSize=11;fontFamily=Helvetica;fontColor=default;" vertex="1" connectable="0" parent="-YLdFHBnDgQqYC_xWiKt-24">
          <mxGeometry x="0.0842" relative="1" as="geometry">
            <mxPoint as="offset" />
          </mxGeometry>
        </mxCell>
        <mxCell id="-YLdFHBnDgQqYC_xWiKt-13" value="회원 로그인" style="rounded=1;whiteSpace=wrap;html=1;arcSize=40;fontColor=#000000;fillColor=#ffffc0;strokeColor=#ff0000;" vertex="1" parent="1">
          <mxGeometry x="280" y="60" width="120" height="40" as="geometry" />
        </mxCell>
        <mxCell id="-YLdFHBnDgQqYC_xWiKt-35" style="edgeStyle=none;shape=connector;rounded=0;orthogonalLoop=1;jettySize=auto;html=1;entryX=0;entryY=0.5;entryDx=0;entryDy=0;labelBackgroundColor=default;strokeColor=default;align=center;verticalAlign=middle;fontFamily=Helvetica;fontSize=11;fontColor=default;endArrow=none;endFill=0;" edge="1" parent="1" source="-YLdFHBnDgQqYC_xWiKt-14" target="-YLdFHBnDgQqYC_xWiKt-33">
          <mxGeometry relative="1" as="geometry" />
        </mxCell>
        <mxCell id="-YLdFHBnDgQqYC_xWiKt-14" value="인증" style="rounded=1;whiteSpace=wrap;html=1;arcSize=40;fontColor=#000000;fillColor=#ffffc0;strokeColor=#ff0000;" vertex="1" parent="1">
          <mxGeometry x="560" y="60" width="120" height="40" as="geometry" />
        </mxCell>
        <mxCell id="-YLdFHBnDgQqYC_xWiKt-25" value="&amp;lt;&amp;lt;extend&amp;gt;&amp;gt;" style="edgeStyle=none;shape=connector;rounded=0;orthogonalLoop=1;jettySize=auto;html=1;entryX=1;entryY=0.5;entryDx=0;entryDy=0;labelBackgroundColor=default;strokeColor=default;align=center;verticalAlign=middle;fontFamily=Helvetica;fontSize=11;fontColor=default;endArrow=classic;endFill=1;exitX=0;exitY=0.5;exitDx=0;exitDy=0;dashed=1;" edge="1" parent="1" source="-YLdFHBnDgQqYC_xWiKt-15" target="-YLdFHBnDgQqYC_xWiKt-13">
          <mxGeometry relative="1" as="geometry" />
        </mxCell>
        <mxCell id="-YLdFHBnDgQqYC_xWiKt-15" value="로그인 실패" style="rounded=1;whiteSpace=wrap;html=1;arcSize=40;fontColor=#000000;fillColor=#ffffc0;strokeColor=#ff0000;" vertex="1" parent="1">
          <mxGeometry x="560" y="190" width="120" height="40" as="geometry" />
        </mxCell>
        <mxCell id="-YLdFHBnDgQqYC_xWiKt-29" style="edgeStyle=none;shape=connector;rounded=0;orthogonalLoop=1;jettySize=auto;html=1;entryX=1;entryY=0.5;entryDx=0;entryDy=0;dashed=1;labelBackgroundColor=default;strokeColor=default;align=center;verticalAlign=middle;fontFamily=Helvetica;fontSize=11;fontColor=default;endArrow=classic;endFill=1;" edge="1" parent="1" source="-YLdFHBnDgQqYC_xWiKt-16" target="-YLdFHBnDgQqYC_xWiKt-11">
          <mxGeometry relative="1" as="geometry" />
        </mxCell>
        <mxCell id="-YLdFHBnDgQqYC_xWiKt-16" value="게시판 정렬" style="rounded=1;whiteSpace=wrap;html=1;arcSize=40;fontColor=#000000;fillColor=#ffffc0;strokeColor=#ff0000;" vertex="1" parent="1">
          <mxGeometry x="420" y="200" width="120" height="40" as="geometry" />
        </mxCell>
        <mxCell id="-YLdFHBnDgQqYC_xWiKt-30" style="edgeStyle=none;shape=connector;rounded=0;orthogonalLoop=1;jettySize=auto;html=1;dashed=1;labelBackgroundColor=default;strokeColor=default;align=center;verticalAlign=middle;fontFamily=Helvetica;fontSize=11;fontColor=default;endArrow=classic;endFill=1;exitX=0;exitY=0.5;exitDx=0;exitDy=0;" edge="1" parent="1" source="-YLdFHBnDgQqYC_xWiKt-17">
          <mxGeometry relative="1" as="geometry">
            <mxPoint x="289" y="310" as="targetPoint" />
          </mxGeometry>
        </mxCell>
        <mxCell id="-YLdFHBnDgQqYC_xWiKt-17" value="게시판 검색" style="rounded=1;whiteSpace=wrap;html=1;arcSize=40;fontColor=#000000;fillColor=#ffffc0;strokeColor=#ff0000;" vertex="1" parent="1">
          <mxGeometry x="419" y="320" width="120" height="40" as="geometry" />
        </mxCell>
        <mxCell id="-YLdFHBnDgQqYC_xWiKt-31" style="edgeStyle=none;shape=connector;rounded=0;orthogonalLoop=1;jettySize=auto;html=1;entryX=1;entryY=0.5;entryDx=0;entryDy=0;dashed=1;labelBackgroundColor=default;strokeColor=default;align=center;verticalAlign=middle;fontFamily=Helvetica;fontSize=11;fontColor=default;endArrow=classic;endFill=1;" edge="1" parent="1" source="-YLdFHBnDgQqYC_xWiKt-18" target="-YLdFHBnDgQqYC_xWiKt-12">
          <mxGeometry relative="1" as="geometry" />
        </mxCell>
        <mxCell id="-YLdFHBnDgQqYC_xWiKt-39" style="edgeStyle=none;shape=connector;rounded=0;orthogonalLoop=1;jettySize=auto;html=1;entryX=0;entryY=0.5;entryDx=0;entryDy=0;labelBackgroundColor=default;strokeColor=default;align=center;verticalAlign=middle;fontFamily=Helvetica;fontSize=11;fontColor=default;endArrow=none;endFill=0;exitX=1;exitY=0.5;exitDx=0;exitDy=0;" edge="1" parent="1" source="-YLdFHBnDgQqYC_xWiKt-18" target="-YLdFHBnDgQqYC_xWiKt-33">
          <mxGeometry relative="1" as="geometry" />
        </mxCell>
        <mxCell id="-YLdFHBnDgQqYC_xWiKt-18" value="게시글 쓰기, 수정&lt;br&gt;, 삭제" style="rounded=1;whiteSpace=wrap;html=1;arcSize=40;fontColor=#000000;fillColor=#ffffc0;strokeColor=#ff0000;" vertex="1" parent="1">
          <mxGeometry x="414" y="430" width="120" height="40" as="geometry" />
        </mxCell>
        <mxCell id="-YLdFHBnDgQqYC_xWiKt-32" style="edgeStyle=none;shape=connector;rounded=0;orthogonalLoop=1;jettySize=auto;html=1;entryX=1;entryY=0.5;entryDx=0;entryDy=0;dashed=1;labelBackgroundColor=default;strokeColor=default;align=center;verticalAlign=middle;fontFamily=Helvetica;fontSize=11;fontColor=default;endArrow=classic;endFill=1;exitX=0;exitY=0.5;exitDx=0;exitDy=0;" edge="1" parent="1" source="-YLdFHBnDgQqYC_xWiKt-19" target="-YLdFHBnDgQqYC_xWiKt-12">
          <mxGeometry relative="1" as="geometry" />
        </mxCell>
        <mxCell id="-YLdFHBnDgQqYC_xWiKt-41" style="edgeStyle=none;shape=connector;rounded=0;orthogonalLoop=1;jettySize=auto;html=1;entryX=0;entryY=0.5;entryDx=0;entryDy=0;labelBackgroundColor=default;strokeColor=default;align=center;verticalAlign=middle;fontFamily=Helvetica;fontSize=11;fontColor=default;endArrow=none;endFill=0;exitX=1;exitY=0.5;exitDx=0;exitDy=0;" edge="1" parent="1" source="-YLdFHBnDgQqYC_xWiKt-19" target="-YLdFHBnDgQqYC_xWiKt-33">
          <mxGeometry relative="1" as="geometry" />
        </mxCell>
        <mxCell id="-YLdFHBnDgQqYC_xWiKt-19" value="댓글 보기, 쓰기,&amp;nbsp;&lt;br&gt;수정, 삭제" style="rounded=1;whiteSpace=wrap;html=1;arcSize=40;fontColor=#000000;fillColor=#ffffc0;strokeColor=#ff0000;" vertex="1" parent="1">
          <mxGeometry x="414" y="520" width="126" height="40" as="geometry" />
        </mxCell>
        <mxCell id="-YLdFHBnDgQqYC_xWiKt-33" value="DB" style="html=1;dropTarget=0;whiteSpace=wrap;fontFamily=Helvetica;fontSize=11;fontColor=default;" vertex="1" parent="1">
          <mxGeometry x="740" y="210" width="80" height="90" as="geometry" />
        </mxCell>
      </root>
    </mxGraphModel>
  </diagram>
</mxfile>
